<svg width="31" height="23" viewBox="0 0 36 28" fill="none" xmlns="http://www.w3.org/2000/svg">
<path d="M31.1818 0H4.45455C3.27351 0.00126336 2.14122 0.470986 1.3061 1.3061C0.470986 2.14122 0.00126336 3.27351 0 4.45455V23.5455C0.00126336 24.7265 0.470986 25.8588 1.3061 26.6939C2.14122 27.529 3.27351 27.9987 4.45455 28H31.1818C32.3629 27.9987 33.4951 27.529 34.3303 26.6939C35.1654 25.8588 35.6351 24.7265 35.6364 23.5455V4.45455C35.6351 3.27351 35.1654 2.14122 34.3303 1.3061C33.4951 0.470986 32.3629 0.00126336 31.1818 0ZM30.0539 7.3683L18.5993 16.2774C18.376 16.451 18.1011 16.5453 17.8182 16.5453C17.5353 16.5453 17.2604 16.451 17.037 16.2774L5.5825 7.3683C5.44792 7.26666 5.33488 7.1393 5.24995 6.9936C5.16502 6.84791 5.10989 6.68678 5.08777 6.51959C5.06564 6.35241 5.07697 6.18249 5.12108 6.01972C5.1652 5.85695 5.24122 5.70457 5.34474 5.57143C5.44825 5.43829 5.5772 5.32706 5.72407 5.24418C5.87095 5.16131 6.03284 5.10846 6.20032 5.08869C6.3678 5.06892 6.53754 5.08264 6.69967 5.12904C6.86181 5.17544 7.01311 5.2536 7.14477 5.35898L17.8182 13.6603L28.4916 5.35898C28.7585 5.15743 29.094 5.06903 29.4255 5.1129C29.7571 5.15677 30.0581 5.32939 30.2633 5.59342C30.4686 5.85745 30.5617 6.19167 30.5225 6.52381C30.4833 6.85595 30.315 7.15931 30.0539 7.3683Z" fill="#20B0A8"/>
</svg>
